<svg width="493" height="708" viewBox="0 0 493 708" fill="none" xmlns="http://www.w3.org/2000/svg">
    <rect x="94" y="640" width="305" height="57" fill="#316DBF"/>
    <path d="M239 695C168 677 94.5 685.5 65.5 703C195.372 700.906 275.4 701.987 429.5 707.5C416.5 695 317.5 684 239 695Z" fill="black"/>
    <path d="M33.2322 589.198C41.3677 526.789 55.3799 494.365 96.3924 443.256C96.7714 442.784 97.3522 442.5 97.9577 442.5H382.904C383.587 442.5 384.23 442.859 384.596 443.435C420.996 500.558 434.493 535.343 443.363 601.47C443.448 602.109 443.222 602.762 442.752 603.203L402.387 641.136C402.133 641.375 401.815 641.544 401.477 641.625C281.421 670.317 209.347 670.566 76.4104 641.913C75.3578 641.686 74.6507 640.66 74.8409 639.601L81.1657 604.363C81.3532 603.318 80.6916 602.308 79.6586 602.063L34.7498 591.415C33.7548 591.179 33.1 590.212 33.2322 589.198Z" fill="#D06E5F"/>
    <path d="M100.5 538C95.0488 556.076 92.926 566.157 91.5 584M374 543C378.575 562.16 380.302 573.486 381.5 595" stroke="black" stroke-width="3" stroke-linecap="round"/>
    <path d="M244.5 530.5L238.5 661.5" stroke="black" stroke-width="3" stroke-linecap="round"/>
    <circle cx="224" cy="541" r="6" fill="black"/>
    <circle cx="222" cy="585" r="6" fill="black"/>
    <circle cx="220" cy="635" r="6" fill="black"/>
    <path d="M105.5 470.5C100.617 462.352 99.5811 458.101 103 451.5L232.5 501.5C244.454 513.125 245.383 518.641 235.5 526.5C205.5 531 148.683 508.205 105.5 470.5Z" fill="#FF1E3F"/>
    <path d="M243.5 518.5C244.228 510.874 247.291 506.495 257.5 498.5L369.5 456C386.262 454.822 389.198 457.665 387.5 466.5C370 498.5 307.5 529.5 253.5 529.5C245.686 528.078 243.579 525.611 243.5 518.5Z" fill="#FF1E3F"/>
    <path d="M105.5 470.5C100.617 462.352 99.5811 458.101 103 451.5L232.5 501.5C244.454 513.125 245.383 518.641 235.5 526.5C205.5 531 148.683 508.205 105.5 470.5Z" stroke="black" stroke-linecap="round"/>
    <path d="M243.5 518.5C244.228 510.874 247.291 506.495 257.5 498.5L369.5 456C386.262 454.822 389.198 457.665 387.5 466.5C370 498.5 307.5 529.5 253.5 529.5C245.686 528.078 243.579 525.611 243.5 518.5Z" stroke="black" stroke-linecap="round"/>
    <circle cx="414.5" cy="610.5" r="35.5" fill="#FF1F41"/>
    <circle cx="386" cy="603" r="15.5" fill="#FF1F41" stroke="black"/>
    <circle cx="63" cy="602" r="38" fill="#FF1F41"/>
    <circle cx="86" cy="592" r="15.5" fill="#FF1F41" stroke="black"/>
    <circle cx="236.5" cy="275.5" r="225.5" fill="#FFEABF"/>
    <path d="M238.463 461.075C237.016 462.206 234.984 462.206 233.537 461.075L174.137 414.652C171.14 412.309 172.796 407.5 176.6 407.5L295.4 407.5C299.204 407.5 300.86 412.309 297.863 414.652L238.463 461.075Z" fill="black"/>
    <path d="M201.5 410H181.538C179.883 410 178.944 411.896 179.947 413.212L184.981 419.819C185.312 420.254 185.808 420.534 186.351 420.595L201.279 422.253C202.464 422.385 203.5 421.457 203.5 420.265V412C203.5 410.895 202.605 410 201.5 410Z" fill="white"/>
    <path d="M228.696 410H207.5C206.395 410 205.5 410.895 205.5 412V422.5C205.5 423.605 206.395 424.5 207.5 424.5H229.782C230.968 424.5 231.894 423.474 231.772 422.294L230.686 411.794C230.58 410.775 229.721 410 228.696 410Z" fill="white"/>
    <path d="M233.279 423.678L231.772 411.241C231.627 410.049 232.557 409 233.757 409H265.493C266.922 409 267.89 410.456 267.337 411.773L262.495 423.32C262.193 424.039 261.501 424.518 260.721 424.545L235.335 425.436C234.297 425.472 233.404 424.708 233.279 423.678Z" fill="white"/>
    <path d="M292.405 409H271.33C270.524 409 269.797 409.484 269.486 410.227L264.729 421.57C264.159 422.928 265.202 424.415 266.673 424.341L282.689 423.541C283.209 423.515 283.698 423.287 284.053 422.906L293.869 412.363C295.06 411.084 294.153 409 292.405 409Z" fill="white"/>
    <ellipse cx="177.697" cy="286.652" rx="59.3366" ry="65.161" transform="rotate(23.9785 177.697 286.652)" fill="white"/>
    <circle cx="198" cy="287" r="5" fill="black"/>
    <ellipse rx="59.3366" ry="65.161" transform="matrix(-0.913698 0.406394 0.406394 0.913698 294.304 286.693)" fill="white"/>
    <circle cx="268" cy="287" r="5" fill="black"/>
    <mask id="mask0_201_64" style="mask-type:alpha" maskUnits="userSpaceOnUse" x="6" y="18" width="487" height="223">
        <path d="M162.5 205.5L6.5 241L27 90.5L200.5 18L444 81.5L493 241L359.5 214L162.5 205.5Z" fill="#D9D9D9"/>
    </mask>
    <g mask="url(#mask0_201_64)">
        <circle cx="236.5" cy="275.5" r="225.5" fill="#3A73C5"/>
    </g>
    <path d="M472 263C369.903 210.558 95.8526 197.012 0 263V214.947C188.774 153.816 266.69 153.553 472 214.947V263Z" fill="#FF2042"/>
    <path d="M322.5 199L366.5 236.5M153.5 193.5L106.5 231" stroke="black" stroke-width="9" stroke-linecap="square"/>
    <path d="M175.469 72.8074L277.893 45.0959" stroke="#FF2042" stroke-width="12" stroke-linecap="round"/>
    <path d="M240.677 7.77782L212.685 110.125" stroke="#FF2042" stroke-width="12" stroke-linecap="round"/>
    <path d="M223.399 6L229.963 111.903" stroke="#FF2042" stroke-width="12" stroke-linecap="round"/>
    <path d="M206.768 9.77706L246.593 108.126" stroke="#FF2042" stroke-width="12" stroke-linecap="round"/>
    <path d="M190.779 19.8918L262.583 98.0115" stroke="#FF2042" stroke-width="12" stroke-linecap="round"/>
    <path d="M179.638 34.4232L273.723 83.4801" stroke="#FF2042" stroke-width="12" stroke-linecap="round"/>
    <path d="M174 52.6756L279.362 65.2276" stroke="#FF2042" stroke-width="12" stroke-linecap="round"/>
    <path d="M190.172 97.4454L263.189 20.4579" stroke="#FF2042" stroke-width="12" stroke-linecap="round"/>
</svg>
